<?xml version="1.0" encoding="UTF-8" standalone="no"?>
<svg
   xmlns:dc="http://purl.org/dc/elements/1.1/"
   xmlns:cc="http://creativecommons.org/ns#"
   xmlns:rdf="http://www.w3.org/1999/02/22-rdf-syntax-ns#"
   xmlns:svg="http://www.w3.org/2000/svg"
   xmlns="http://www.w3.org/2000/svg"
   viewBox="230 30 900 150"
   xml:space="preserve"
   id="svg2"
   version="1.1"><metadata
     id="metadata8"><rdf:RDF><cc:Work
         rdf:about=""><dc:format>image/svg+xml</dc:format><dc:type
           rdf:resource="http://purl.org/dc/dcmitype/StillImage" /></cc:Work></rdf:RDF></metadata><defs
     id="defs6" /><g
     transform="matrix(1.3333333,0,0,-1.3333333,0,793.70667)"
     id="g10"><g
       transform="scale(0.1)"
       id="g12"><path
         id="path14"
         style="fill:#231f20;fill-opacity:1;fill-rule:nonzero;stroke:none" 
         d="m 2206.84,5287.05 c 14.54,0 28.84,4.1 34.19,12.3 1.42,-7.72 4.1,-10.88 14.19,-10.88 2.36,0 3.94,0 4.72,0.32 v 10.4 c -8.35,0 -8.98,1.26 -8.98,10.56 v 32.78 c 0,24.9 -4.73,35.14 -34.04,35.14 -14.5,0 -27.58,-5.51 -33.25,-9.46 l 6.3,-9.29 c 5.52,3.62 14.97,7.56 26.01,7.56 20.01,0 23.16,-6.62 23.48,-21.43 h -5.2 c -44.13,0 -58,-7.41 -58,-32.15 0,-14.65 6.15,-25.85 30.58,-25.85 z m 1.73,10.25 c -16.08,0 -20.8,5.99 -20.8,16.39 0,16.39 9.3,20.49 47.12,20.49 h 4.57 v -6.31 c 0,-21.12 -8.99,-30.57 -30.89,-30.57 z m 147.35,-10.25 c 33.57,0 36.56,14.19 36.56,37.83 v 50.75 h -11.66 v -50.91 c 0,-14.97 0.32,-26.79 -24.9,-26.79 -25.37,0 -25.37,11.82 -25.37,26.16 v 51.54 h -11.82 v -51.22 c 0,-23.17 3.47,-37.36 37.19,-37.36 z m 93.93,77.7 h 15.6 v -53.74 c 0,-14.65 3.62,-22.54 23.16,-22.54 1.74,0 11.35,0 12.61,0.16 v 10.56 h -10.72 c -12.13,0 -13.23,5.2 -13.23,13.24 v 52.32 h 23.95 v 10.88 h -23.95 v 27.89 l -9.46,-1.73 -2.05,-26.16 h -15.91 z m 146.24,-77.85 c 30.1,0 42.08,15.44 42.08,45.39 0,29.94 -11.98,45.38 -42.08,45.38 -30.1,0 -41.92,-15.44 -41.92,-45.38 0,-29.95 11.82,-45.39 41.92,-45.39 z m 0,10.87 c -21.9,0 -29.94,11.98 -29.94,34.2 0,22.38 8.04,34.35 29.94,34.35 21.91,0 29.95,-11.97 29.95,-34.35 0,-22.22 -8.04,-34.2 -29.95,-34.2 z m 102.75,-35.14 h 11.98 v 36.25 c 4.57,-8.04 13.71,-11.67 32.62,-11.67 29.31,0 37.67,17.97 37.67,45.08 0,27.42 -8.2,45.38 -37.2,45.38 -19.85,0 -29.78,-4.1 -34.51,-12.45 l -1.1,10.41 -9.46,-0.64 z m 42.71,35.46 c -22.22,0 -30.73,8.19 -30.73,33.88 0,25.85 8.83,34.35 30.73,34.35 21.75,0 27.42,-13.07 27.42,-34.35 0,-21.27 -5.99,-33.88 -27.42,-33.88 z m 100.23,-9.46 h 11.98 v 46.96 c 0,17.02 7.56,29.16 28.83,29.16 v 11.98 c -16.07,-0.16 -26.79,-5.99 -30.1,-12.77 l -1.26,11.67 -9.45,-0.64 z m 132.53,-1.73 c 30.1,0 42.08,15.44 42.08,45.39 0,29.94 -11.98,45.38 -42.08,45.38 -30.1,0 -41.92,-15.44 -41.92,-45.38 0,-29.95 11.82,-45.39 41.92,-45.39 z m 0,10.87 c -21.9,0 -29.94,11.98 -29.94,34.2 0,22.38 8.04,34.35 29.94,34.35 21.91,0 29.95,-11.97 29.95,-34.35 0,-22.22 -8.04,-34.2 -29.95,-34.2 z m 135.85,-10.72 c 19.23,0 28.68,3.79 34.2,12.45 l 1.41,-11.18 9.3,0.79 v 121.82 h -11.97 v -45.08 c -4.57,8.04 -13.71,11.67 -32.63,11.67 -29.15,0 -37.66,-17.81 -37.66,-44.92 0,-27.42 8.35,-45.55 37.35,-45.55 z m 2.2,11.04 c -21.59,0 -27.42,13.08 -27.42,34.51 0,21.12 5.83,33.72 27.42,33.72 22.38,0 30.74,-8.19 30.74,-33.72 0,-25.85 -8.83,-34.51 -30.74,-34.51 z m 144.36,-11.04 c 33.57,0 36.56,14.19 36.56,37.83 v 50.75 h -11.66 v -50.91 c 0,-14.97 0.31,-26.79 -24.9,-26.79 -25.37,0 -25.37,11.82 -25.37,26.16 v 51.54 h -11.82 v -51.22 c 0,-23.17 3.46,-37.36 37.19,-37.36 z m 138.37,0 c 14.49,0 23,4.42 31.67,12.3 l -8.04,7.56 c -6.61,-5.98 -13.39,-9.14 -23.32,-9.14 -23.17,0 -29.94,12.77 -29.94,34.2 0,21.75 7.09,34.2 29.94,34.2 11.66,0 18.44,-4.89 22.69,-9.14 l 8.67,8.19 c -6.3,6.78 -15.76,12.45 -31.36,12.45 -32.78,0 -41.92,-17.81 -41.92,-45.38 0,-27.58 9.14,-45.24 41.61,-45.24 z m 83.68,77.7 h 15.6 v -53.74 c 0,-14.65 3.62,-22.54 23.16,-22.54 1.74,0 11.35,0 12.61,0.16 v 10.56 h -10.71 c -12.14,0 -13.24,5.2 -13.24,13.24 v 52.32 h 23.95 v 10.88 h -23.95 v 27.89 l -9.46,-1.73 -2.05,-26.16 h -15.91 z m 139.94,-77.7 c 24.11,0 35.14,6.31 35.14,26.16 0,18.6 -12.76,21.44 -33.88,25.69 -15.29,3 -21.59,5.36 -21.59,14.98 0,7.87 4.73,12.76 21.12,12.76 10.56,0 19.38,-2.68 26,-6.3 l 5.67,9.77 c -8.03,4.73 -18.75,7.56 -31.83,7.56 -23.95,0 -32.78,-8.82 -32.78,-23.79 0,-18.76 12.61,-22.23 32.78,-26.17 16.7,-3.3 23.01,-5.19 23.01,-14.97 0,-12.29 -7.25,-15.28 -23.01,-15.28 -9.14,0 -20.33,2.04 -30.57,8.67 l -6.31,-9.31 c 11.82,-7.71 24.75,-9.77 36.25,-9.77" /><path
         id="path22"
         style="fill:#231f20;fill-opacity:1;fill-rule:nonzero;stroke:none"
         d="m 2366.41,5106.82 c 10.53,-2.19 21.21,-3.85 31.57,-6.68 38.4,-10.47 64.66,-33.63 72.78,-73.68 2.55,-12.57 2.35,-25.82 2.39,-38.76 0.14,-43.76 -0.19,-87.51 -0.32,-131.27 -0.03,-10.79 -0.01,-21.59 -0.01,-32.85 -24.45,0 -47.93,0 -72.09,0 0,3.11 0,6.24 0,9.25 -11.55,-2.99 -22.47,-5.92 -33.45,-8.58 -3.12,-0.76 -6.44,-1.04 -9.66,-1.01 -42.22,0.41 -84.48,0.01 -126.64,1.76 -21.45,0.89 -42.45,6.3 -58.83,22.35 -14.92,14.63 -20.38,33.21 -22.93,53.13 -0.26,2.04 -0.86,4.04 -1.3,6.06 0,4.34 0,8.67 0,13.01 0.84,5.05 1.66,10.11 2.54,15.16 4.44,25.49 14.67,47.74 39.42,58.95 11.97,5.43 25.49,8.61 38.6,10.04 21.69,2.35 43.63,3.42 65.45,3.28 33.9,-0.21 68.05,2.9 101.54,-5.48 0.96,-0.23 2,-0.14 3.02,-0.2 0.37,19.03 -10.32,32.69 -28.96,33.69 -28.91,1.56 -57.93,1.45 -86.9,1.66 -12.11,0.09 -24.29,-0.12 -36.31,-1.4 -16.42,-1.75 -23.79,-8.45 -26.55,-22.35 -23.26,0 -46.58,0 -69.87,0 -0.69,3.26 -1.34,6.32 -1.98,9.39 0,3.03 0,6.07 0,9.1 0.36,0.96 0.99,1.89 1.06,2.87 0.88,12.19 6.16,22.38 14.09,31.41 16.57,18.87 37.09,30.94 61.69,36.01 8.62,1.77 17.26,3.43 25.9,5.14 38.58,0 77.16,0 115.75,0 z m -52.62,-167.16 c 0,0.16 0,0.32 0,0.49 -14.06,0 -28.13,0.3 -42.17,-0.09 -13.12,-0.37 -26.47,0.66 -38.97,-4.9 -8.83,-3.93 -13.82,-12.33 -12.9,-21.94 1.13,-11.67 5.66,-17.49 16.37,-19.59 7.18,-1.41 14.54,-2.49 21.83,-2.58 27.7,-0.36 55.43,-0.88 83.11,-0.09 14.34,0.41 28.74,2.75 42.86,5.5 11.31,2.2 15.44,8.78 15.64,20.57 0.18,10.75 -3.87,16.44 -14.71,20.11 -3.46,1.17 -7.12,2.37 -10.7,2.41 -20.12,0.23 -40.24,0.11 -60.36,0.11" /><path
         id="path24"
         style="fill:#231f20;fill-opacity:1;fill-rule:nonzero;stroke:none"
         d="m 6006.59,4992.38 c 0,-1.74 0,-3.47 0,-5.2 -0.37,-2.51 -1.04,-5.01 -1.05,-7.52 -0.06,-49.61 -0.04,-99.23 -0.04,-148.85 0,-2.48 0,-4.96 0,-7.38 -24.45,0 -47.78,0 -71.45,0 -0.19,3.47 -0.36,6.65 -0.53,9.81 -0.62,0.05 -1.08,0.21 -1.46,0.11 -1.88,-0.53 -3.76,-1.05 -5.59,-1.7 -18.35,-6.51 -37.12,-9.39 -56.71,-8.72 -25.11,0.85 -50.28,-0.13 -75.37,0.81 -17.66,0.66 -35.47,2 -52.81,5.19 -27.63,5.09 -46.14,21.95 -54.55,48.92 -7.62,24.45 -7.19,48.99 0.65,73.46 8.39,26.17 26.02,42.49 52.46,48.9 10.88,2.64 22.15,4.23 33.33,5 17.92,1.22 35.9,1.92 53.86,1.85 27.27,-0.1 54.54,-0.77 81.79,-1.83 7.8,-0.3 15.51,-2.79 23.35,-4.3 0.56,14.41 -7.39,26.66 -21.21,31.46 -6.85,2.37 -14.32,3.82 -21.57,4.05 -25.31,0.8 -50.67,1.61 -75.98,0.97 -15.44,-0.39 -31.01,-2.5 -46.19,-5.54 -16.34,-3.28 -14.04,-3.64 -14.74,-17.79 -0.02,-0.36 -0.41,-0.69 -0.87,-1.42 -22.68,0 -45.59,0 -68.95,0 -4.54,23.34 -1.28,44.21 16.69,60.98 12.96,12.09 28.75,19.23 45.54,23.98 12.84,3.63 25.99,6.18 39.01,9.2 38.58,0 77.16,0 115.74,0 10.31,-2.17 20.72,-3.95 30.91,-6.59 49.86,-12.88 74.99,-49.92 74.64,-92.64 -0.04,-5.07 0.71,-10.14 1.1,-15.21 z m -161.25,-52.67 c -18.19,0 -36.41,0.62 -54.55,-0.27 -9.09,-0.44 -18.34,-2.81 -26.99,-5.84 -8.62,-3.02 -11.77,-11.2 -10.62,-22.15 1.05,-9.94 4.79,-14.89 14.1,-16.98 7.36,-1.66 14.91,-3.19 22.41,-3.39 22.95,-0.62 45.94,-1.33 68.86,-0.56 18.96,0.63 37.95,2.61 56.73,5.36 12.48,1.82 16.95,8.45 17.38,20.59 0.39,11.24 -4.2,17.57 -16.12,21.14 -4.29,1.28 -8.91,1.96 -13.39,2.01 -19.27,0.21 -38.54,0.09 -57.81,0.09" /><path
         id="path26"
         style="fill:#231f20;fill-opacity:1;fill-rule:nonzero;stroke:none"
         d="m 3751.47,4822.01 c -2.03,0.36 -4.05,1.01 -6.09,1.04 -29.87,0.5 -59.78,0.13 -89.6,1.7 -14.06,0.74 -28.42,3.71 -41.77,8.25 -22.28,7.59 -35.44,24.71 -41.85,47.06 -7,24.45 -6.27,48.79 1.84,72.83 10.19,30.2 32.59,45.14 63.05,49.74 35.92,5.44 72.09,4.79 108.23,4.3 16.01,-0.21 32.04,-0.49 48.01,-1.55 8.35,-0.56 16.59,-2.87 24.88,-4.38 2.18,13.45 -10.01,30.23 -25.02,32.63 -13.42,2.14 -27.07,3.64 -40.64,3.86 -24.45,0.39 -48.93,-0.13 -73.38,-0.84 -7.26,-0.2 -14.59,-1.81 -21.68,-3.63 -14.3,-3.68 -16.78,-6.92 -18.16,-21.1 -23.58,0 -47.12,0 -70.36,0 -6.27,31.03 8.89,51.72 29.69,69.37 16.52,14 37.01,19.18 57.86,22.91 3.95,0.7 7.84,1.74 11.76,2.62 39.01,0 78.03,0 117.04,0 10.55,-2.19 21.23,-3.86 31.61,-6.67 38.22,-10.34 64.55,-33.55 72.75,-73.08 3.24,-15.66 2.17,-32.31 2.19,-48.51 0.04,-49.19 -0.34,-98.38 -0.55,-147.57 -0.01,-2.35 -0.01,-4.7 -0.01,-7.47 -24.13,0 -47.65,0 -71.79,0 -0.2,3 -0.4,6.14 -0.65,9.95 -1.85,-0.61 -3.5,-1.32 -5.22,-1.7 -13.05,-2.9 -26.1,-5.74 -39.15,-8.61 -1.6,-0.35 -3.19,-0.77 -4.78,-1.15 -6.07,0 -12.14,0 -18.21,0 z m -29.6,67.27 c 0.02,0.34 0.04,0.67 0.06,1 7.58,0 15.21,-0.5 22.74,0.1 18.95,1.51 37.95,2.86 56.75,5.56 11.85,1.7 16.96,9.15 17.37,20.87 0.36,10.17 -5.16,17.86 -16.11,20.75 -6.21,1.63 -12.79,2.37 -19.22,2.47 -19.71,0.33 -39.48,-0.62 -59.15,0.39 -23.28,1.2 -46.28,0.47 -69.04,-4.55 -11.82,-2.6 -16.58,-9.28 -16.29,-21.44 0.31,-12.85 4.96,-19.64 17.53,-20.9 21.71,-2.18 43.57,-2.91 65.36,-4.25" /><path
         id="path28"
         style="fill:#231f20;fill-opacity:1;fill-rule:nonzero;stroke:none"
         d="m 4702.16,5106.82 c 10.25,-1.3 20.5,-2.55 30.74,-3.9 20.59,-2.72 40.4,-7.85 57.87,-19.65 19.02,-12.85 29.72,-31.06 30.75,-53.79 1.3,-28.98 1.12,-58.03 1.54,-87.04 0.03,-1.92 -0.3,-3.84 -0.54,-6.59 -88.02,0 -175.88,0 -264.43,0 0.54,-13.26 1.53,-25.73 9.01,-35.92 2.87,-3.9 9.15,-6.15 14.3,-7.4 22.33,-5.44 45.17,-4.34 67.9,-4.15 24.04,0.2 48.08,0.6 72.11,1.09 5.39,0.1 10.82,0.57 16.13,1.47 11.92,2.01 16.58,7.06 17.13,19.1 0.19,4.16 1.57,6.11 5.48,6.08 20.56,-0.17 41.13,-0.43 61.7,-0.67 0.17,0 0.34,-0.22 0.51,-0.34 7.39,-48.35 -22.68,-82.89 -67.25,-87.87 -57.26,-6.4 -114.64,-4.73 -171.99,-2.26 -11.96,0.52 -24.1,3.32 -35.59,6.91 -30.08,9.39 -46.23,31.36 -52.02,61.53 -7.21,37.57 -6.41,75.43 -3.26,113.29 0.93,11.18 2.36,22.46 5.01,33.34 8.76,36.13 33.15,56.84 71.57,61.53 12.25,1.49 24.55,2.49 36.82,3.81 1.85,0.2 3.65,0.95 5.47,1.43 30.35,0 60.69,0 91.04,0 z m 52.01,-106.36 c 0,5.82 0.21,11.2 -0.04,16.57 -0.57,12.17 -4.7,16.95 -16.73,19.55 -2.95,0.63 -5.99,1.05 -9,1.15 -28.31,0.98 -56.63,2.58 -84.94,2.53 -20.07,-0.04 -40.14,-2.12 -60.18,-3.74 -7.18,-0.59 -14.8,-2.59 -17.93,-9.88 -3.47,-8.12 -5.39,-16.89 -8.22,-26.18 67,0 131.88,0 197.04,0" /><path
         id="path30"
         style="fill:#231f20;fill-opacity:1;fill-rule:nonzero;stroke:none"
         d="m 3413.33,5106.82 c 11.02,-1.73 22.05,-3.34 33.04,-5.24 22.1,-3.82 42.09,-11.68 56.44,-30.12 11.44,-14.7 16.31,-31.82 18.34,-49.92 4.07,-36.45 5.44,-72.96 1.39,-109.51 -2.01,-18.18 -5.54,-36.02 -15.89,-51.6 -15.65,-23.54 -39.42,-31.79 -66.04,-34.52 -49.5,-5.1 -99.08,-3.04 -148.6,-0.94 -11.95,0.5 -24.08,3.36 -35.58,6.92 -28.41,8.8 -45.3,28.79 -50.86,57.74 -9.2,47.9 -8.71,95.85 -0.82,144.03 6.29,38.43 32.08,61.79 70.79,67.81 10.26,1.59 20.6,2.6 30.9,3.97 1.42,0.19 2.77,0.91 4.15,1.38 34.25,0 68.49,0 102.74,0 z m -56.08,-215.44 c 22.54,0.68 44.85,1.06 67.12,2.11 16.83,0.79 23.96,7.25 26.68,23.65 5.32,32.17 2.43,64.38 -0.84,96.46 -1.36,13.37 -8.47,19.3 -22.02,20.51 -43.23,3.87 -86.4,3.51 -129.66,-0.77 -18.31,-1.81 -22.47,-7.55 -25.24,-23.07 -5.65,-31.59 -4.76,-63.43 -0.09,-95.09 1.97,-13.36 7.66,-19.23 21.37,-20.49 20.88,-1.91 41.91,-2.29 62.68,-3.31" /><path
         id="path32"
         style="fill:#231f20;fill-opacity:1;fill-rule:nonzero;stroke:none"
         d="m 5554,5106.82 c 8.48,-1.42 16.96,-2.78 25.42,-4.28 44.4,-7.88 67.74,-34 70.53,-79.21 0.45,-7.33 0.07,-14.7 0.07,-23.14 -11.86,0 -23.67,0 -35.48,0 -11.66,0 -23.33,0 -35.82,0 0,4.65 -0.06,8.91 0.01,13.17 0.12,7.72 -3.03,14.16 -10.21,16.52 -9.95,3.27 -20.4,6.85 -30.68,7 -33.99,0.49 -68.01,-0.27 -102,-1.12 -6.99,-0.17 -14,-2.51 -20.84,-4.44 -8.83,-2.51 -14.08,-8.69 -14.46,-17.9 -1.04,-25.52 -1.82,-51.04 -2.44,-76.57 -0.16,-6.69 0.49,-13.42 1.04,-20.1 1.07,-13.03 7.08,-20.58 19.98,-22.85 10.82,-1.9 21.93,-3.03 32.91,-3.03 33.57,0 67.16,0.24 100.71,1.32 20.29,0.66 27.14,8.91 26.31,25.32 -0.18,3.62 0.59,7.28 0.96,11.34 22.94,0 45.59,0 68.2,0 0.3,-0.27 0.86,-0.53 0.89,-0.85 3.35,-31.17 -0.51,-60.28 -24.89,-83.03 -12.89,-12.04 -29.14,-16.72 -46.13,-18.89 -11.35,-1.46 -22.83,-2 -34.24,-3.02 -1.4,-0.12 -2.76,-0.69 -4.14,-1.05 -30.78,0 -61.56,0 -92.34,0 -9.62,0.85 -19.28,1.38 -28.84,2.65 -8.98,1.2 -17.98,2.72 -26.77,4.92 -31.79,7.96 -51.91,28.34 -58.66,60.09 -10.29,48.4 -9.78,97.29 -0.45,145.72 7.29,37.88 32.27,60.04 70.58,66.19 10.81,1.73 21.62,3.49 32.43,5.24 39.45,0 78.9,0 118.35,0" /><path
         id="path34"
         style="fill:#231f20;fill-opacity:1;fill-rule:nonzero;stroke:none"
         d="m 2657.72,4822.01 c -5.94,0.43 -11.88,1.11 -17.83,1.26 -22.91,0.6 -45.43,3 -65.85,14.58 -34.59,19.59 -52.76,50 -53.86,89.1 -1.56,55 -1.03,110.05 -1.39,165.09 0,0.21 0,0.43 0,0.64 0.26,12.19 0.26,12.19 12.3,12.19 16.68,0 33.37,0 50.06,0 2.34,0 4.69,0 7.86,0 0,-3.14 0,-5.66 0,-8.18 0,-51.8 -0.04,-103.6 0.02,-155.39 0.02,-14.39 2.68,-28.03 12.78,-39.17 6.71,-7.41 15.26,-11.49 25.02,-12.47 29.39,-2.96 58.86,-3 88.2,0.25 23.15,2.56 37.38,20.94 37.4,47 0.06,52.88 0.02,105.76 0.02,158.64 0,2.59 0,5.18 0,8.33 23.1,0 45.91,0 69.44,0 0.33,-3.3 0.95,-6.68 0.95,-10.06 -0.01,-52.65 0.04,-105.31 -0.21,-157.96 -0.31,-65.05 -46.89,-111.75 -111.88,-112.59 -7.28,-0.1 -14.54,-0.83 -21.81,-1.26 -10.41,0 -20.81,0 -31.22,0" /><path
         id="path36"
         style="fill:#231f20;fill-opacity:1;fill-rule:nonzero;stroke:none"
         d="m 3088.2,4822.01 c -9.58,1.3 -19.26,2.07 -28.72,4 -23.52,4.79 -44.56,14.32 -55.66,37.12 -5.42,11.13 -9.13,23.43 -11.52,35.61 -2.36,12.01 -2.68,24.53 -2.82,36.83 -0.35,31.64 -0.12,63.28 -0.12,94.91 0,2.36 0,4.71 0,8.01 -38.21,0 -75.96,0 -113.92,0 0,22.33 0,43.69 0,65.5 104.65,0 209,0 313.88,0 0,-21.17 0,-42.46 0,-64.52 -42.87,0 -85.66,0 -128.68,0 -0.3,-4.38 -0.78,-8.02 -0.76,-11.66 0.2,-35.73 -0.04,-71.48 0.92,-107.2 0.6,-22.21 9.99,-30.68 32.34,-32.28 5.81,-0.42 11.62,-0.85 17.83,-1.31 0,-21.2 0,-42.11 0,-63.12 -2.87,-0.64 -5.67,-1.27 -8.46,-1.89 -4.77,0 -9.54,0 -14.31,0" /><path
         id="path38"
         style="fill:#231f20;fill-opacity:1;fill-rule:nonzero;stroke:none"
         d="m 4189.31,5067.89 c 25.53,29.54 59.71,37.34 96.64,36.81 22.25,-0.33 44.88,-0.13 66.64,-4.08 46.44,-8.44 73.39,-38.54 82.62,-84.05 3.54,-17.48 5,-35.62 5.3,-53.5 0.73,-43.97 0.24,-87.97 0.24,-131.96 0,-2.35 0,-4.71 0,-7.53 -21.95,0 -43.5,0 -66.1,0 0,2.41 0,4.91 0,7.4 -0.15,47.02 0,94.05 -0.67,141.06 -0.14,10.25 -2.23,20.71 -5.07,30.6 -4.85,16.85 -16.69,27.47 -33.44,32.47 -27.08,8.08 -53.88,6.87 -80.32,-2.88 -12.64,-4.65 -20.73,-13.75 -25.12,-26.32 -5.62,-16.13 -7.67,-32.86 -7.73,-49.82 -0.14,-41.61 -0.04,-83.22 -0.04,-124.83 0,-2.36 0,-4.71 0,-7.51 -22.56,0 -44.73,0 -67.34,0 -0.1,2.19 -0.27,4.29 -0.27,6.39 -0.09,43.99 0.23,87.99 -0.46,131.97 -0.21,13.31 -2.3,26.76 -5.13,39.8 -4.42,20.3 -18.05,31.93 -38.31,35.76 -21.58,4.08 -43.13,3.55 -64.45,-1.68 -27.93,-6.86 -40.6,-23.29 -41.14,-54.31 -0.76,-43.11 -0.97,-86.22 -1.38,-129.33 -0.09,-9.47 -0.01,-18.95 -0.01,-28.72 -22.2,0 -43.76,0 -66.1,0 0,2.58 0,4.9 0,7.21 0,45.51 -0.09,91.02 0.04,136.53 0.06,20.88 2.18,41.54 9.19,61.38 14.41,40.82 43.44,64.53 85.68,72.53 36.32,6.88 72.43,5.02 108.33,-2.94 16.31,-3.63 29.96,-12.14 41.61,-24 2.11,-2.14 4.36,-4.15 6.79,-6.45" /><path
         id="path40"
         style="fill:#231f20;fill-opacity:1;fill-rule:nonzero;stroke:none"
         d="m 4933.86,4823.53 c -23.47,0 -45.94,0 -68.88,0 0,93.46 0,186.71 0,280.43 22.6,0 45.22,0 68.57,0 0,-4.36 0,-8.74 0,-11.96 12.64,3.91 24.87,7.84 37.2,11.42 3.27,0.95 6.86,1.1 10.3,1.1 34.38,0 68.95,2.88 102.95,-4.3 28.83,-6.08 49.62,-23.46 64.44,-48.51 6.21,-10.5 7.03,-22.1 7.39,-33.85 0.14,-4.33 -1.87,-5.4 -5.93,-5.4 -17.11,-0.02 -34.21,-0.35 -51.32,-0.57 -3.8,-0.05 -8.49,-1.53 -11.16,0.18 -2.56,1.64 -3.02,6.56 -4.45,10.01 -3.13,7.56 -8.85,12.78 -16.67,14.1 -11.88,2.01 -23.95,3.48 -35.99,3.89 -15.78,0.54 -31.65,0.53 -47.41,-0.5 -30.55,-1.98 -48.94,-22.68 -49.01,-54.37 -0.11,-51.14 -0.03,-102.27 -0.03,-153.41 0,-2.56 0,-5.13 0,-8.26" /><path
         id="path42"
         style="fill:#231f20;fill-opacity:1;fill-rule:nonzero;stroke:none"
         d="m 5206.19,5104.15 c 22.84,0 45.32,0 68.32,0 0,-93.58 0,-187 0,-280.63 -22.8,0 -45.3,0 -68.32,0 0,93.36 0,186.6 0,280.63" /><path
         id="path44"
         style="fill:#d22027;fill-opacity:1;fill-rule:nonzero;stroke:none"
         d="m 5469.79,5252.73 -240.14,-5.41 -681.25,163.61 444.84,-170.82 -2845.32,-57.18 h 509.96 2830.34 509.95 l -939.84,228 411.46,-158.2" /><path
         id="path46"
         style="fill:#231f20;fill-opacity:1;fill-rule:nonzero;stroke:none"
         d="m 6147.98,4970.91 c 40.59,0 60.97,28.27 60.97,62.94 0,34.68 -20.38,62.94 -60.97,62.94 -40.76,0 -61.14,-28.26 -61.14,-62.94 0,-34.67 20.38,-62.94 61.14,-62.94 z m 0,11.18 c -36.32,0 -49.31,23.82 -49.31,51.76 0,27.94 12.99,51.77 49.31,51.77 36.15,0 49.13,-23.83 49.13,-51.77 0,-27.94 -12.98,-51.76 -49.13,-51.76 z m 13.31,15.93 h 20.87 l -12.82,24 c 12,4.27 13.48,13.8 13.48,22.84 0,13.31 -2.96,24.65 -29.75,24.65 h -35.99 v -71.49 h 19.23 v 21.53 h 13.47 z m -24.98,37.97 v 16.43 h 15.94 c 8.71,0 10.68,-1.48 10.68,-8.22 0,-6.57 -1.97,-8.21 -10.52,-8.21 h -16.1" />
         
         </g></g></svg>